<?xml version="1.0" encoding="UTF-8" standalone="no"?>
<!-- Created with Inkscape (http://www.inkscape.org/) -->

<svg
   xmlns:osb="http://www.openswatchbook.org/uri/2009/osb"
   xmlns:dc="http://purl.org/dc/elements/1.1/"
   xmlns:cc="http://creativecommons.org/ns#"
   xmlns:rdf="http://www.w3.org/1999/02/22-rdf-syntax-ns#"
   xmlns:svg="http://www.w3.org/2000/svg"
   xmlns="http://www.w3.org/2000/svg"
   xmlns:sodipodi="http://sodipodi.sourceforge.net/DTD/sodipodi-0.dtd"
   xmlns:inkscape="http://www.inkscape.org/namespaces/inkscape"
   width="172.14928mm"
   height="172.14928mm"
   viewBox="0 0 172.14928 172.14928"
   version="1.1"
   id="svg3719"
   inkscape:version="0.92.4 5da689c313, 2019-01-14"
   sodipodi:docname="d-tracker.svg"
   inkscape:export-filename="/home/drmargarido/Imagens/d-tracker_icon.png"
   inkscape:export-xdpi="9.4663038"
   inkscape:export-ydpi="9.4663038">
  <defs
     id="defs3713">
    <linearGradient
       id="linearGradient6334"
       osb:paint="solid">
      <stop
         style="stop-color:#000000;stop-opacity:1;"
         offset="0"
         id="stop6332" />
    </linearGradient>
    <linearGradient
       id="linearGradient6302"
       osb:paint="solid">
      <stop
         style="stop-color:#ffccaa;stop-opacity:1;"
         offset="0"
         id="stop6300" />
    </linearGradient>
    <linearGradient
       id="linearGradient6225"
       osb:paint="solid">
      <stop
         style="stop-color:#000000;stop-opacity:1;"
         offset="0"
         id="stop6223" />
    </linearGradient>
  </defs>
  <sodipodi:namedview
     id="base"
     pagecolor="#ffffff"
     bordercolor="#666666"
     borderopacity="1.0"
     inkscape:pageopacity="0.0"
     inkscape:pageshadow="2"
     inkscape:zoom="0.7"
     inkscape:cx="67.778663"
     inkscape:cy="366.34595"
     inkscape:document-units="mm"
     inkscape:current-layer="layer1"
     showgrid="false"
     showguides="true"
     inkscape:guide-bbox="true"
     inkscape:window-width="1920"
     inkscape:window-height="1003"
     inkscape:window-x="0"
     inkscape:window-y="40"
     inkscape:window-maximized="1"
     fit-margin-top="0"
     fit-margin-left="0"
     fit-margin-right="0"
     fit-margin-bottom="0" />
  <metadata
     id="metadata3716">
    <rdf:RDF>
      <cc:Work
         rdf:about="">
        <dc:format>image/svg+xml</dc:format>
        <dc:type
           rdf:resource="http://purl.org/dc/dcmitype/StillImage" />
        <dc:title></dc:title>
      </cc:Work>
    </rdf:RDF>
  </metadata>
  <g
     inkscape:groupmode="layer"
     id="layer3"
     inkscape:label="Layer 3"
     transform="translate(-50.894492,-12.44062)">
    <ellipse
       style="display:inline;fill:#a05a2c;stroke:#000000;stroke-width:0.30850616;stroke-opacity:1"
       id="path3842-7"
       cx="137.96132"
       cy="176.70909"
       rx="55.162563"
       ry="8.4825029" />
    <ellipse
       style="display:inline;fill:#a05a2c;stroke:#000000;stroke-width:0.26458332;stroke-opacity:1"
       id="path3842-9-0"
       cx="137.96132"
       cy="174.63022"
       rx="55.184525"
       ry="6.2366071" />
  </g>
  <g
     inkscape:groupmode="layer"
     id="layer5"
     inkscape:label="Layer 5"
     transform="translate(-50.894492,-12.44062)">
    <rect
       style="fill:#e3dbdb;fill-opacity:1;stroke:#000000;stroke-width:0.14202341;stroke-miterlimit:4;stroke-dasharray:none;stroke-opacity:1"
       id="rect6353"
       width="9.4214449"
       height="142.89891"
       x="133.14459"
       y="28.475294" />
  </g>
  <g
     inkscape:label="Layer 1"
     inkscape:groupmode="layer"
     id="layer1"
     style="display:inline"
     transform="translate(-50.894492,-12.44062)">
    <path
       style="fill:#e3dbdb;stroke:#000000;stroke-width:0.28072327px;stroke-linecap:butt;stroke-linejoin:miter;stroke-opacity:1"
       d="m 137.96131,24.939147 c -35.53886,0.861759 -45.097611,1.966946 -45.097611,1.966946 0,0 -8.529292,23.010319 3.513179,34.135899 12.042462,11.125578 35.261842,7.61651 37.027622,40.658898"
       id="path3760"
       inkscape:connector-curvature="0" />
    <path
       style="fill:#e3dbdb;stroke:#000000;stroke-width:0.2807233px;stroke-linecap:butt;stroke-linejoin:miter;stroke-opacity:1"
       d="m 137.96131,24.939147 c 35.53886,0.861759 45.09761,1.966946 45.09761,1.966946 0,0 8.5293,23.01032 -3.51318,34.135899 -12.04246,11.125578 -35.26184,7.61651 -37.02762,40.658898"
       id="path3760-3"
       inkscape:connector-curvature="0" />
    <path
       style="fill:#e3dbdb;stroke:#000000;stroke-width:0.2807233px;stroke-linecap:butt;stroke-linejoin:miter;stroke-opacity:1"
       d="m 137.96131,178.46264 c -35.53886,-0.86176 -45.097613,-1.96695 -45.097613,-1.96695 0,0 -8.529292,-23.01031 3.513179,-34.13589 12.042464,-11.12558 35.261844,-7.61651 37.027624,-40.65891"
       id="path3760-5"
       inkscape:connector-curvature="0" />
    <path
       style="fill:#ffe6d5;stroke:#000000;stroke-width:0.2807233px;stroke-linecap:butt;stroke-linejoin:miter;stroke-opacity:1"
       d="m 137.96131,178.46264 c 35.53886,-0.86176 45.09761,-1.96695 45.09761,-1.96695 0,0 8.5293,-23.01031 -3.51318,-34.13589 -12.04246,-11.12558 -35.26184,-7.61651 -37.02762,-40.65891"
       id="path3760-3-6"
       inkscape:connector-curvature="0" />
    <path
       style="fill:#ffccaa;fill-opacity:1;stroke:#000000;stroke-width:0.38211161;stroke-opacity:1"
       d="m 139.34091,152.06817 c -21.4018,0.11606 -39.843832,10.80167 -48.566379,16.83854 0.938686,4.64077 1.833275,7.24912 2.608341,7.54392 0.864465,0.32881 12.748908,1.04942 25.173538,1.5263 11.29722,0.4336 26.55909,0.44845 37.3111,0.0362 13.96481,-0.53547 25.779,-1.22657 26.67369,-1.55987 0.73453,-0.27361 1.52717,-2.46467 2.156,-5.43719 -15.07817,-14.27463 -30.8926,-19.02633 -45.35629,-18.94789 z"
       id="path3835"
       inkscape:connector-curvature="0" />
    <path
       style="fill:#ffccaa;stroke:#000000;stroke-width:0.38030753;stroke-opacity:1"
       d="m 92.409206,55.87585 c 0.154022,0.370151 0.252694,0.625254 0.252694,0.665569 0,0.07932 0.44638,0.63904 0.99194,1.243813 0.54556,0.604772 0.97986,1.194703 0.965261,1.310986 -0.04211,0.335181 1.865725,2.118147 2.266399,2.118147 0.199116,0 0.576818,0.340245 0.839696,0.756002 0.262876,0.415759 0.662443,0.756001 0.887833,0.756001 0.22538,0 0.783399,0.343656 1.239919,0.763753 0.456532,0.420094 0.923052,0.754111 1.036422,0.742046 0.11336,-0.01206 1.79269,0.787618 3.73234,1.777096 1.93964,0.989474 5.4237,2.66259 7.74196,3.717994 6.4838,2.951793 10.64509,5.846167 13.65123,9.495232 0.83141,1.009219 1.74877,2.120686 2.03829,2.47005 0.28954,0.349367 1.13461,2.002059 1.8782,3.672522 2.13227,4.79004 3.30367,9.950453 3.4786,15.111749 3.78323,1.48056 6.76462,2.25856 9.11007,2.52896 -0.1334,-2.7981 0.0176,-5.563184 0.48656,-8.137212 0.53184,-2.919281 2.20625,-7.924738 3.51992,-10.523556 3.08885,-6.110604 7.39129,-9.869338 16.163,-14.120117 5.45523,-2.643606 10.35962,-5.068108 12.75294,-6.304314 0.66789,-0.344977 1.2718,-0.755117 1.34195,-0.911026 0.0701,-0.155911 0.37151,-0.283177 0.66966,-0.283177 0.29817,0 0.54255,-0.167819 0.54255,-0.373092 0,-0.205273 0.68842,-0.803125 1.53028,-1.32804 0.84187,-0.524916 1.53081,-1.197526 1.53081,-1.49495 0,-0.297424 0.38761,-0.808714 0.86115,-1.136326 0.47355,-0.327609 0.81661,-0.719847 0.76227,-0.871752 -0.0272,-0.07596 0.009,-0.216171 0.0906,-0.380327 -37.46147,6.285811 -72.41069,1.978582 -90.362454,-1.266031 z"
       id="path3837"
       inkscape:connector-curvature="0" />
    <path
       style="fill:none;stroke:#000000;stroke-width:0.26458332px;stroke-linecap:butt;stroke-linejoin:miter;stroke-opacity:1"
       d="M 75.217262,161.30654 Z"
       id="path6248"
       inkscape:connector-curvature="0" />
    <ellipse
       style="fill:#ffccaa;stroke:#000000;stroke-width:0.26458332;stroke-opacity:1"
       id="path6256"
       cx="139.93979"
       cy="109.53139"
       rx="0.43431297"
       ry="1.3363476" />
    <ellipse
       style="fill:#ffccaa;stroke:#000000;stroke-width:0.26458332;stroke-opacity:1"
       id="path6262"
       cx="140.10684"
       cy="114.37564"
       rx="0.33408689"
       ry="0.76839989" />
    <ellipse
       style="fill:#ffccaa;stroke:#000000;stroke-width:0.26458332;stroke-opacity:1"
       id="path6272"
       cx="140.04002"
       cy="118.48492"
       rx="0.26726952"
       ry="0.46772167" />
    <text
       xml:space="preserve"
       style="font-style:normal;font-weight:normal;font-size:10.58333302px;line-height:1.25;font-family:sans-serif;letter-spacing:0px;word-spacing:0px;fill:#000000;fill-opacity:1;stroke:none;stroke-width:0.26458332"
       x="94.872025"
       y="17.297617"
       id="text6393"><tspan
         sodipodi:role="line"
         id="tspan6391"
         x="94.872025"
         y="26.661386"
         style="stroke-width:0.26458332" /></text>
  </g>
  <g
     inkscape:groupmode="layer"
     id="layer6"
     inkscape:label="Layer 6"
     transform="translate(-50.894492,-12.44062)">
    <path
       style="display:inline;fill:#ffccaa;fill-opacity:1;stroke:#000000;stroke-width:0.38211161;stroke-opacity:1"
       d="m 139.34091,152.06818 c -21.4018,0.11606 -39.843832,10.80167 -48.566379,16.83854 0.938686,4.64077 1.833275,7.24912 2.608341,7.54392 0.864465,0.32881 12.748908,1.04942 25.173538,1.5263 11.29722,0.4336 26.55909,0.44845 37.3111,0.0362 13.96481,-0.53547 25.779,-1.22657 26.67369,-1.55987 0.73453,-0.27361 1.52718,-2.46467 2.156,-5.43719 -15.07817,-14.27463 -30.8926,-19.02633 -45.35629,-18.94789 z"
       id="path3835-9"
       inkscape:connector-curvature="0" />
    <path
       style="display:inline;fill:#ffccaa;stroke:#000000;stroke-width:0.38030753;stroke-opacity:1"
       d="m 92.409205,55.875856 c 0.154022,0.37015 0.252694,0.62525 0.252694,0.66557 0,0.0793 0.44638,0.63904 0.99194,1.24381 0.54556,0.60477 0.97986,1.1947 0.965261,1.31098 -0.04211,0.33519 1.865725,2.11815 2.266399,2.11815 0.199116,0 0.576818,0.34025 0.839696,0.756 0.262876,0.41576 0.662444,0.756 0.887824,0.756 0.22539,0 0.783409,0.34366 1.239929,0.76376 0.456532,0.42009 0.923052,0.75411 1.036422,0.74204 0.11336,-0.0121 1.79269,0.78762 3.73234,1.7771 1.93964,0.98947 5.4237,2.66259 7.74195,3.71799 6.48381,2.9518 10.6451,5.84617 13.65124,9.49524 0.83141,1.00922 1.74877,2.12068 2.0383,2.47005 0.28953,0.34936 1.1346,2.00206 1.87819,3.67252 2.13227,4.79004 3.30367,9.95045 3.4786,15.111744 3.78323,1.48056 6.76462,2.25856 9.11007,2.52896 -0.1334,-2.79809 0.0176,-5.563184 0.48656,-8.137204 0.53184,-2.91929 2.20625,-7.92474 3.51992,-10.52356 3.08885,-6.1106 7.39129,-9.86934 16.163,-14.12012 5.45523,-2.6436 10.35962,-5.06811 12.75294,-6.30431 0.66789,-0.34498 1.2718,-0.75512 1.34195,-0.91103 0.0701,-0.15591 0.37151,-0.28318 0.66966,-0.28318 0.29817,0 0.54255,-0.16781 0.54255,-0.37309 0,-0.20527 0.68842,-0.80312 1.53028,-1.32804 0.84187,-0.52491 1.53081,-1.19752 1.53081,-1.49495 0,-0.29742 0.38761,-0.80871 0.86115,-1.13632 0.47355,-0.32761 0.81661,-0.71985 0.76227,-0.87176 -0.0272,-0.076 0.009,-0.21617 0.0906,-0.38032 -37.46147,6.28581 -72.41069,1.97858 -90.362455,-1.26603 z"
       id="path3837-3"
       inkscape:connector-curvature="0" />
  </g>
  <g
     inkscape:groupmode="layer"
     id="layer4"
     inkscape:label="Layer 4"
     transform="translate(-50.894492,-12.44062)" />
  <g
     inkscape:groupmode="layer"
     id="layer2"
     inkscape:label="Layer 2"
     style="display:inline"
     transform="translate(-50.894492,-12.44062)">
    <ellipse
       style="fill:#a05a2c;stroke:#000000;stroke-width:0.29812938;stroke-opacity:1"
       id="path3842"
       cx="137.20535"
       cy="22.211309"
       rx="55.167747"
       ry="7.9207268" />
    <ellipse
       style="display:inline;fill:#a05a2c;stroke:#000000;stroke-width:0.26458332;stroke-opacity:1"
       id="path3842-9"
       cx="137.20537"
       cy="19.565477"
       rx="55.184525"
       ry="6.2366071" />
  </g>
  <g
     inkscape:groupmode="layer"
     id="layer7"
     inkscape:label="Layer 7"
     transform="translate(-50.894492,-12.44062)">
    <flowRoot
       xml:space="preserve"
       id="flowRoot6396"
       style="font-style:normal;font-variant:normal;font-weight:normal;font-stretch:normal;font-size:32px;line-height:1.25;font-family:'Kingthings Foundation';-inkscape-font-specification:'Kingthings Foundation';letter-spacing:0px;word-spacing:0px;fill:#000000;fill-opacity:1;stroke:none"
       transform="matrix(0.26458333,0,-0.10369662,0.26458333,-4.9355133,2.2678572)"><flowRegion
         id="flowRegion6398"
         style="font-style:normal;font-variant:normal;font-weight:normal;font-stretch:normal;font-size:32px;line-height:1.25;font-family:'Kingthings Foundation';-inkscape-font-specification:'Kingthings Foundation'"><rect
           id="rect6400"
           width="45.975128"
           height="56.532043"
           x="375.71429"
           y="48.233971"
           style="font-style:normal;font-variant:normal;font-weight:normal;font-stretch:normal;font-size:32px;line-height:1.25;font-family:'Kingthings Foundation';-inkscape-font-specification:'Kingthings Foundation'" /></flowRegion><flowPara
         id="flowPara6402">Dsda</flowPara></flowRoot>    <text
       xml:space="preserve"
       style="font-style:normal;font-variant:normal;font-weight:normal;font-stretch:normal;font-size:8.46666622px;line-height:1.25;font-family:'Kingthings Foundation';-inkscape-font-specification:'Kingthings Foundation';letter-spacing:0px;word-spacing:0px;fill:#000000;fill-opacity:1;stroke:none;stroke-width:0.26458332"
       x="128.29077"
       y="17.877781"
       id="text6406"
       transform="matrix(1.0063129,0.03210396,-0.55669499,0.9759667,0,0)"><tspan
         sodipodi:role="line"
         id="tspan6404"
         x="128.29077"
         y="17.877781"
         style="font-style:normal;font-variant:normal;font-weight:normal;font-stretch:normal;font-size:8.46666622px;font-family:'Kingthings Foundation';-inkscape-font-specification:'Kingthings Foundation';stroke-width:0.26458332">D-Tracker</tspan></text>
  </g>
</svg>
